<?xml version="1.0" encoding="utf-8"?>
<!-- Generator: Adobe Illustrator 22.0.1, SVG Export Plug-In . SVG Version: 6.00 Build 0)  -->
<svg version="1.1" xmlns="http://www.w3.org/2000/svg" xmlns:xlink="http://www.w3.org/1999/xlink" x="0px" y="0px"
	 viewBox="0 0 841.9 1190.6" style="enable-background:new 0 0 841.9 1190.6;" xml:space="preserve">
<style type="text/css">
	.st0{fill:#23B1E3;}
	.st1{fill:#BFE4ED;stroke:#000000;stroke-miterlimit:10;}
	.st2{fill:none;stroke:#010101;stroke-miterlimit:10;}
	.st3{fill:none;stroke:#000000;stroke-miterlimit:10;}
	.st4{fill:#82532E;stroke:#000000;stroke-miterlimit:10;}
	.st5{fill:#CEB4A3;stroke:#000000;stroke-miterlimit:10;}
	.st6{fill:none;}
	.st7{font-family:'ComicSansMS';}
	.st8{font-size:24px;}
	.st9{fill:#FFFFFF;}
	.st10{fill:#6FC06A;stroke:#000000;stroke-miterlimit:10;}
	.st11{fill:#3E3E3E;stroke:#000000;stroke-miterlimit:10;}
	.st12{fill:#010101;stroke:#010101;stroke-miterlimit:10;}
	.st13{fill:#FFFFFF;stroke:#010101;stroke-miterlimit:10;}
	.st14{fill:#3E3E3E;stroke:#3E3E3E;stroke-miterlimit:10;}
	.st15{fill:#9D74B3;stroke:#000000;stroke-miterlimit:10;}
	.st16{fill:#7F3319;stroke:#131212;stroke-miterlimit:10;}
	.st17{fill:#DD7727;stroke:#010101;stroke-miterlimit:10;}
	.st18{fill:#D799C4;stroke:#010101;stroke-miterlimit:10;}
	.st19{fill:#FEE628;stroke:#000000;stroke-miterlimit:10;}
	.st20{fill:#E98D24;stroke:#010101;stroke-miterlimit:10;}
	.st21{fill:#EFE0DA;}
	.st22{stroke:#010101;stroke-miterlimit:10;}
	.st23{fill:#EBC2DC;stroke:#010101;stroke-miterlimit:10;}
	.st24{fill:#050404;stroke:#010101;stroke-miterlimit:10;}
	.st25{fill:#5D61AC;stroke:#000000;stroke-miterlimit:10;}
	.st26{fill:#878787;stroke:#010101;stroke-miterlimit:10;}
	.st27{fill:#010101;}
	.st28{fill:#7DCFD3;stroke:#000000;stroke-miterlimit:10;}
	.st29{fill:#B3924E;stroke:#010101;stroke-miterlimit:10;}
	.st30{fill:#E5C78A;}
	.st31{fill:#F0526C;stroke:#000000;stroke-miterlimit:10;}
	.st32{fill:#AA6427;stroke:#010101;stroke-miterlimit:10;}
	.st33{fill:#C68352;stroke:#C68352;stroke-miterlimit:10;}
</style>
<g id="Layer_1">
	<rect class="st0" width="841.9" height="1190.6"/>
</g>
<g id="Layer_2">
	<rect class="st1" width="841.9" height="1190.6"/>
	<path class="st2" d="M23.5,437.1"/>
	<path class="st2" d="M26.1,429.7"/>
	<path class="st3" d="M15,426.6"/>
	<path class="st3" d="M219.7,537.8"/>
	<path class="st3" d="M162.3,185.6"/>
	<path class="st3" d="M437.8,443"/>
	<path class="st3" d="M438.1,104.1"/>
	<path class="st3" d="M634.7,267.8"/>
	<g>
		<path class="st4" d="M381,695.9l11.9,500.3c11.3,0.5,22.9,0.9,34.7,1.1c16.2,0.3,32.1,0.4,47.5,0.2
			c-6.2-167.1-12.5-334.2-18.7-501.4l-14.6-0.2l-11.9-11.8L381,695.9z"/>
		<line class="st3" x1="387.7" y1="697" x2="389.7" y2="723.8"/>
		<line class="st3" x1="398.6" y1="706.6" x2="399.8" y2="730.2"/>
		<line class="st3" x1="415.9" y1="691.4" x2="416.2" y2="763.4"/>
		<line class="st3" x1="435.6" y1="719.4" x2="435" y2="749.6"/>
		<line class="st3" x1="393.7" y1="1000.5" x2="395.4" y2="1066.5"/>
		<line class="st3" x1="408" y1="1030.8" x2="409.7" y2="1096.7"/>
		<path class="st3" d="M417.8,1015.5c-0.2,2.6,1.6,40.9,1.6,40.9"/>
		<line class="st3" x1="439" y1="1024.2" x2="440" y2="1099.1"/>
		<line class="st3" x1="427.5" y1="1035.5" x2="425.8" y2="1079.5"/>
		<line class="st3" x1="448.2" y1="1000.4" x2="450.8" y2="1053.8"/>
		<line class="st3" x1="401.5" y1="1097" x2="403.7" y2="1141.9"/>
		<line class="st3" x1="416.8" y1="1087.4" x2="418.5" y2="1141.1"/>
		<line class="st3" x1="430.6" y1="986.1" x2="430.9" y2="1001.5"/>
		<path class="st3" d="M403.7,985.3c0.3,1.4,3,34.2,3,34.2"/>
		<line class="st3" x1="450.3" y1="1085.4" x2="450.6" y2="1126.3"/>
		<line class="st3" x1="432.4" y1="1091.2" x2="434.4" y2="1138.7"/>
		<g>
			<g>
				<path class="st5" d="M638.5,723.8c0.7,12.5,1.3,25.1,2,37.6l-7.9,7.6l12.7,25.3l-5,24.3l2.6,5.3L629,842.3
					c0,0,7.3,10.5,7.8,10.6c0.5,0.1-1.9,9.1-1.9,9.1l9.5,5.1l-3.1,15.2l11.4,8.7l-4.1,19.8l-13.7,2.4l-6.8,27.7l13.7,2.8l-16.6,57.3
					l-35.8-3.2l-10.3,11.6l-42.6-3.5l-5.8,7.8l-33.9-7l-3.2,10.4l-20.3-4.2l-162.7,7.6l-58-18.3l-37.3-21.4l4.5-24.4l-5.9-25
					l18.8-9.3l-20.4-13.7l-9.1-83.8l60.5-11.8l-56.9-8.6l0.5-20.5l-8.6-11.8l15.3-15.3c-1.5-7.8-3-15.6-4.5-23.5
					C352.6,729.9,495.5,726.9,638.5,723.8z"/>
				<rect x="222.3" y="760.5" class="st6" width="411.6" height="249.9"/>
				<text transform="matrix(1 0 0 1 298.7424 779.1519)"><tspan x="0" y="0" class="st7 st8">Reopening August 2018</tspan><tspan x="-24.4" y="36" class="st7 st8">Admission Fee: Adults- $12</tspan><tspan x="81.6" y="72" class="st7 st8">Kids- $6</tspan><tspan x="-8.2" y="108" class="st7 st8">Opening hours: 8am-8pm</tspan><tspan x="-10.1" y="144" class="st7 st8">Closed on Public Holidays</tspan><tspan x="-55.6" y="180" class="st7 st8">We’re waiting just for you at the </tspan><tspan x="107.4" y="216" class="st7 st8">zoo!</tspan></text>
			</g>
			<g>
				<circle class="st3" cx="392.3" cy="741.8" r="4.3"/>
				<circle class="st3" cx="438.6" cy="744.3" r="4.3"/>
				<circle class="st3" cx="413.3" cy="1007.1" r="5.8"/>
				<circle class="st3" cx="458.5" cy="1005.3" r="5.1"/>
			</g>
		</g>
	</g>
	<path class="st9" d="M287.2,165c8.5-17.9,3.2-42.2-13.2-55.3c-12-9.5-25.8-9.7-30.6-9.5c2.1-28.1-13.7-53.8-37.7-63.1
		c-28.7-11.2-64.2,3-78.7,34.3c-2.8-1.2-23.7-9.9-44.9,1.1c-17,8.9-27.7,27.1-27.7,47.1c-3.3-0.2-14.3-0.6-24.5,6.7
		c-9.4,6.8-15.3,18.1-15,29.5c0.6,23.1,26.7,34.3,29,35.2c10.7,4.4,18.3,2.9,37.7,1.7c8.8-0.6,24.7-0.7,56.5-0.9
		c39.6-0.2,59.3-0.4,82.5,0.9c11.7,0.6,21.4,1.4,33.8-2.8C262.2,187.3,279.3,181.6,287.2,165z"/>
	<g>
		<path class="st10" d="M396.4,75.2C381.8,23.7,329.1-7,279.4,4.7c-52.8,12.4-86.7,68.7-71.5,123.6c-2.3-10.3,3.7-20.8,13.6-24
			c9.6-3.1,20.3,1.5,24.7,10.8c0-9.1,5.5-17.3,13.7-20.9c8.8-3.7,19.1-1.4,25.7,5.7c1.6-9,8.3-16.2,17.1-18.4
			c8.4-2.1,17.4,0.7,23.2,7.3c0.3-8.7,6.3-16.3,14.7-18.5c8.3-2.2,17.2,1.4,21.8,8.7c1.9-8.5,9.3-14.4,17.4-14.5
			C386.8,64.4,393.3,68.6,396.4,75.2z"/>
		<path class="st3" d="M335.3,216.9l-89-101.8c-2.9-9.4-9.6-35.8,0.9-66.1c7.4-21.3,20-35.1,27.2-42c-2.6,9.6-5.2,23.9-4.1,41
			c1.6,23.9,9.8,42,15.3,52L335.3,216.9"/>
		<path class="st3" d="M274.7,5.9c8.7,8.5,18.8,19.9,28.3,34.6c11.7,18,18.7,35,22.9,48.2l9.3,128.1"/>
		<path class="st3" d="M274.7,5.9c19.6,4.9,34.6,11.8,44.7,17.2c11.8,6.4,19.9,10.8,27.5,19.8c11.1,13.1,14.4,27.8,15.5,36
			l-27.1,137.9"/>
		<polyline class="st3" points="207.9,128.3 335.3,216.9 396.4,75.2 		"/>
		<g>
			<path class="st11" d="M302.8,203.7c-6.1-4.8-14.4-3.7-18.2,1.1c-4.3,5.3-2.8,15,4.9,19.3c1.2-3.2,3-7.3,5.9-11.7
				C297.9,208.7,300.5,205.8,302.8,203.7z"/>
			<path class="st11" d="M353,187.7c1.9-7.5,9.2-11.6,15.1-10.2c6.6,1.6,11.3,10.2,7.8,18.3c-2.9-1.9-6.8-4-11.8-5.7
				C360,188.8,356.1,188.1,353,187.7z"/>
			<path class="st12" d="M321.4,283.3"/>
			<path class="st13" d="M321.2,283.3c-3.4-0.1-11.2-0.8-19-6c-5.9-4-9.2-8.8-10.9-11.6c-1.8-3.3-4-8.5-5.1-15.1
				c-1-6.2-0.6-11.4-0.1-15c0.9-5.1,3-13.8,9.1-22.6c4.2-6.2,9-10.4,12.5-13.1c4.1-2.8,10.1-6.3,17.8-8.9c7.4-2.5,14-3.4,18.9-3.7
				c4.8,0,11.7,0.5,19.5,3.2c5.6,1.9,10.2,4.4,13.5,6.5c3.5,2.8,8.2,7.2,12.2,13.7c1.9,3,5.5,8.8,7.1,17.4c0.8,4.2,2,10.6-0.3,18.4
				c-2.3,7.6-6.7,12.5-9.2,14.8c2.8,4.6,6.1,10.7,8.9,18.3c3.1,8.3,5.7,15,5.5,24c-0.1,4.7-0.2,12.2-5.1,19.6
				c-4,6.1-9.4,9-13.4,11.3c-7.2,4-13.7,5.1-15.9,5.4c-4.6,0.6-8.6,0.4-11.4,0c-4.4-1-11.1-3.2-17.1-8.6c-4.7-4.3-7.1-8.9-9.3-13.2
				c-3.4-6.8-4.7-12.5-6.1-18.4C322.3,293.5,321.6,288.1,321.2,283.3z"/>
			<g>
				
					<ellipse transform="matrix(0.9473 -0.3203 0.3203 0.9473 -60.8507 123.5522)" class="st12" cx="345.2" cy="246.8" rx="8.4" ry="3.7"/>
				<path class="st14" d="M330.3,232.8c1.1,6.3-1.7,14.6-7.5,16c-6,1.4-12.8-5.2-14-12.1c-1.2-6.9,2.8-15.5,9-16.2
					C323.7,219.6,329.2,226.5,330.3,232.8z"/>
				<path class="st12" d="M319,231.7c0.3-0.3,1.1-0.8,2.2-0.9c1-0.1,1.8,0.3,2.2,0.5c0.4,0.3,1.3,0.8,2,1.9c0.7,1,1,2,1.1,2.6
					c0,0.5,0,1.3-0.3,2.1c-0.2,0.7-0.5,1.1-0.8,1.4c-0.3,0.3-0.9,0.8-1.8,1.1c-1.1,0.4-2,0.2-2.5,0.1c-0.3-0.1-0.9-0.2-1.5-0.7
					c-1.4-1.1-1.7-2.9-1.8-3.4c-0.1-0.5-0.2-1.5,0.1-2.6C318.2,232.7,318.7,232.1,319,231.7z"/>
				<path class="st14" d="M368.1,217c3,6.3,1.3,15.7-4.4,18c-5.5,2.3-12.6-2.9-15.4-8.7s-2.2-14.5,3.1-17.4
					C356.8,206,365.1,210.6,368.1,217z"/>
				<path class="st12" d="M353.4,220.1c0.3-0.3,1.1-0.8,2.2-0.9c1-0.1,1.8,0.3,2.2,0.5c0.4,0.3,1.3,0.8,2,1.9c0.7,1,1,2,1.1,2.6
					c0,0.5,0,1.3-0.3,2.1c-0.2,0.7-0.5,1.1-0.8,1.4c-0.3,0.3-0.9,0.8-1.8,1.1c-1.1,0.4-2,0.2-2.5,0.1c-0.3-0.1-0.9-0.2-1.5-0.7
					c-1.4-1.1-1.7-2.9-1.8-3.4c-0.1-0.5-0.2-1.5,0.1-2.6C352.6,221.1,353.1,220.4,353.4,220.1z"/>
				<path class="st14" d="M321.4,283.4c9.8-2.1,20.4-4.9,31.7-8.6c12.7-4.2,24-8.8,34-13.3c2.2,3.7,4.5,7.9,6.7,12.7
					c1.8,4.1,3.3,8,4.4,11.6c-10.6,4.9-22.7,9.8-36.1,14.3c-12.7,4.2-24.6,7.4-35.5,9.8c-1.8-5.7-3.4-12.2-4.5-19.4
					C321.8,288,321.5,285.7,321.4,283.4z"/>
				<g>
					<path class="st2" d="M329.1,287.6c6.5,11.1,15.1,17.8,21.8,16.2c0.8-0.2,3-0.7,3.9-2.4c3.5-6.3-13.3-21.2-15-22.7"/>
					<path class="st2" d="M349.6,299.3c0.2,0.5,0.6,1.4,1.5,2.2c0.7,0.7,1.5,1.2,2,1.4"/>
					<path class="st2" d="M352.2,297.4c0.2,0.5,0.6,1.2,1.3,1.8c0.6,0.6,1.2,1,1.7,1.3"/>
					<path class="st2" d="M382.6,269.5c1.6,12.8-1.2,23.3-7.4,26.1c-0.8,0.4-2.8,1.3-4.6,0.5c-6.4-2.9-1.9-24.5-1.3-27.4"/>
					<path class="st2" d="M373.4,291.3c0.2,0.6,0.4,1.5,0.2,2.7c-0.1,1-0.5,1.8-0.7,2.3"/>
					<path class="st2" d="M370.3,291.3c0.1,0.5,0.2,1.3,0.1,2.2c-0.1,0.9-0.4,1.6-0.6,2"/>
				</g>
				<path class="st14" d="M335.1,327.1c10.4-2,22.3-4.9,35.1-9.3c12-4.1,22.5-8.7,31.6-13.2c0.1,2.6-0.1,6.8-1.7,11.5
					c-1.5,4.4-3.8,7.6-5.3,9.6c-2.8,2.7-7.3,6.4-13.4,9.4c-6.2,3-11.8,4.2-15.7,4.8c-3,0.4-8.4,0.7-14.6-1.4
					C342.1,335.5,337,329.5,335.1,327.1z"/>
				<g>
					<path class="st2" d="M349.7,336.2c-1.1-5.7,1.6-10.9,5.8-12.4c2.4-0.9,5.5-0.6,7.7,1.1c3.4,2.6,4.5,8.1,1.8,13"/>
					<line class="st2" x1="357.5" y1="325.2" x2="358" y2="323.3"/>
					<line class="st2" x1="360.3" y1="325.8" x2="360.9" y2="323.7"/>
					<path class="st2" d="M394.6,320.5c-2.6-5.2-7.9-7.7-12.1-6.4c-2.5,0.8-4.7,2.8-5.5,5.5c-1.2,4.1,1.4,9.1,6.5,11.4"/>
					<line class="st2" x1="381.7" y1="316.5" x2="380.2" y2="315.3"/>
					<line class="st2" x1="379.8" y1="318.7" x2="378.1" y2="317.4"/>
				</g>
			</g>
		</g>
	</g>
	<path class="st9" d="M472.6,408.8c-7.8-16.5-3-38.9,12.2-51c11-8.8,23.8-8.9,28.2-8.8c-1.9-25.9,12.6-49.6,34.7-58.2
		c26.5-10.4,59.2,2.7,72.5,31.7c2.6-1.1,21.8-9.2,41.4,1c15.7,8.2,25.6,25,25.5,43.4c3.1-0.2,13.2-0.6,22.6,6.2
		c8.7,6.3,14.1,16.7,13.8,27.2c-0.6,21.3-24.6,31.6-26.8,32.5c-9.8,4-16.9,2.7-34.7,1.5c-8.1-0.5-22.8-0.6-52.1-0.8
		c-36.5-0.2-54.7-0.3-76.1,0.8c-10.8,0.6-19.8,1.3-31.2-2.6C495.7,429.5,479.9,424.2,472.6,408.8z"/>
	<g>
		<path class="st15" d="M625.1,478.4c8-53-27.3-102.6-77.3-112.6c-53.1-10.6-107.4,26.7-116.2,83c2.2-10.4,12-17.4,22.3-16.2
			c10.1,1.1,17.9,9.7,18.1,20c3.8-8.3,12.2-13.5,21.1-13.3c9.5,0.2,18,6.6,21,15.8c5.2-7.5,14.3-11.3,23.2-9.7
			c8.6,1.5,15.6,7.8,18.1,16.2c3.8-7.8,12.4-12.2,21-10.8c8.5,1.5,15.1,8.4,16.2,16.9c5.3-6.9,14.4-9.3,21.9-6
			C620.8,464.6,625,471.1,625.1,478.4z"/>
		<path class="st3" d="M510.9,582.2l-38.9-129.5c1.3-9.8,6-36.5,28.1-59.8c15.6-16.4,32.7-23.7,42.2-27
			c-6.4,7.7-14.6,19.6-20.7,35.7c-8.4,22.4-8.4,42.3-7.5,53.7L510.9,582.2"/>
		<path class="st3" d="M542.9,365c4.4,11.3,8.9,25.9,11.5,43.3c3.2,21.2,2.5,39.6,1,53.4l-44.5,120.5"/>
		<path class="st3" d="M542.9,365c15.8,12.6,26.6,25.1,33.6,34.2c8.1,10.7,13.7,18.1,16.9,29.4c4.7,16.6,1.6,31.3-0.8,39.2
			l-81.7,114.3"/>
		<polyline class="st3" points="431.6,448.8 510.9,582.2 625.1,478.4 		"/>
		<g>
			<path class="st16" d="M533.2,534c1.2-0.8,2.9-1.7,5.1-2.3c2.9-0.9,5.4-0.9,7.1-0.8c-5.2-0.6-12.6-1.4-21.6-2
				c-1.1-0.1-16.1-1-23.1-0.7c-7.8,0.3-23.9,2.8-44.7,20.5c2.7,0.7,5.5,1.4,8.2,2.2c-2.3,0.9-5.7,2.5-8.9,5.5
				c-7.9,7.4-9.2,18.3-10.1,25.8c-0.6,5.6-0.9,14-0.6,14c0,0,0,0,0,0c0.5-0.4,0.9-2.7,1.8-4.1c0.1-0.1,0.8-0.7,2.3-1.9
				c0.5,5.9,1.8,14.7,6.2,24.4c4.8,10.8,11.2,18.2,15.5,22.5c-0.1-0.6-0.1-1.6,0.3-2.8c0.4-1.4,1.2-2.2,1.6-2.7
				c1.2,3.3,3.3,8,7.3,12.6c2,2.3,4,4.1,5.8,5.4c0.5-0.7,1.2-1.8,1.7-3.4c0.5-1.8,0.5-3.3,0.4-4.2c0.8,2,2.4,5.2,5.6,8.2
				c3.8,3.7,7.9,5.2,10,5.8c4.4-0.5,13.2-2.1,21.8-8.5c5.4-4,8.8-8.4,10.9-11.6c0.2,0.7,0.4,1.4,0.5,2.2c0.3,1.9,0.4,3.6,0.3,4.9
				c4-2.5,10-6.9,15.3-14.1c4.6-6.1,7.1-11.9,8.5-16.1c0.4,2.8,0.9,5.7,1.3,8.5c2.9-3.4,7.6-10,10.2-19.4
				c2.9-10.5,1.7-19.3,0.8-23.8c-0.5-4.5-2.5-17.2-12.9-27.9c-5.7-5.9-11.9-9-15.9-10.6c1.2,0.1,2.3,0.2,3.5,0.3
				c1.6,0.1,3.2,0.3,4.9,0.4c-3-1.6-6.7-3.1-10.8-4.5C538.5,535.2,535.7,534.6,533.2,534z"/>
			<g>
				<g>
					<path class="st17" d="M558.5,605.3c-0.9,2.7-4.4,13.6-14.9,20.1c-2.4,1.5-8.8,4.9-34.7,2.4c-23.7-2.2-35.7-3.5-44.1-11.9
						c-9-9-10.3-20.4-10.5-22.4c-2-19.6,12.8-35.9,26.3-43.2c12.9-7,25.5-6,31.2-5.5c6,0.5,20.6,1.8,32.8,13.2
						C556.5,569.1,564.1,588,558.5,605.3z"/>
					<path class="st12" d="M523.3,578c0.6-0.1,1.8-0.4,3.4,0.1c1.3,0.5,2.2,1.3,2.5,1.7c0.4,0.6,1.2,1.7,1.5,3.3
						c0.3,1.6,0.1,2.9,0,3.6c-0.2,0.6-0.7,1.5-1.6,2.3c-0.7,0.7-1.3,1-1.8,1.3c-0.6,0.2-1.7,0.5-2.9,0.3c-1.6-0.1-2.7-0.8-3.3-1.2
						c-0.4-0.3-1.1-0.8-1.6-1.7c-1.2-2-0.6-4.3-0.4-5c0.2-0.6,0.6-1.9,1.6-3.1C521.6,578.8,522.7,578.3,523.3,578z"/>
					<path class="st12" d="M489.6,575c0.6-0.1,1.8-0.4,3.4,0.1c1.3,0.5,2.2,1.3,2.5,1.7c0.4,0.6,1.2,1.7,1.5,3.3
						c0.3,1.6,0.1,2.9,0,3.6c-0.2,0.6-0.7,1.5-1.6,2.3c-0.7,0.7-1.3,1-1.8,1.3c-0.6,0.2-1.7,0.5-2.9,0.3c-1.6-0.1-2.7-0.8-3.3-1.2
						c-0.4-0.3-1.1-0.8-1.6-1.7c-1.2-2-0.6-4.3-0.4-5c0.2-0.6,0.6-1.9,1.6-3.1C487.9,575.7,489,575.2,489.6,575z"/>
				</g>
				<path class="st12" d="M503.2,594.2c2.9,0.3,5.8,0.6,8.8,0.9c-0.2,0.6-0.7,1.7-1.7,2.6c-0.7,0.7-1.6,1.6-2.9,1.6
					c-1.6,0-2.6-1.5-3.1-2.2C503.5,596,503.3,594.9,503.2,594.2z"/>
			</g>
			<g>
				<line class="st2" x1="425.8" y1="574.6" x2="474" y2="592.4"/>
				<line class="st2" x1="430.3" y1="596.4" x2="473.3" y2="600.4"/>
				<line class="st2" x1="422.2" y1="613.2" x2="472.6" y2="607.8"/>
			</g>
			<g>
				<line class="st2" x1="596.3" y1="589.6" x2="545.6" y2="598.5"/>
				<line class="st2" x1="587.9" y1="610.3" x2="544.9" y2="606.4"/>
				<line class="st2" x1="592.8" y1="628.2" x2="544.2" y2="613.8"/>
			</g>
			<path class="st17" d="M467.7,634.3c-2.4,8.4-3.1,15.6-3.4,20.6c-0.2,5-0.4,9.6,1.1,15.6c1.3,5.2,3.3,9.3,4.9,11.9
				c1.6,2.1,4.1,5,7.8,7.7c7.1,5.3,14.5,7.1,18.8,7.7c1.2,0.2,2,0.3,2.5,0.3c2.9,0.3,12.6,1,22.4-4.5c2.1-1.2,5-3.1,8.1-6.3
				c4.4-6,6.7-11.5,7.9-15.2c2.2-6.9,2.5-12.8,2.8-20.2c0.2-4.7,0.2-8.7,0-11.5c-1.4,1-2.8,2.1-4.3,3.1c0.1-0.7,0.2-1.6,0.2-2.5
				c0.1-2-0.2-3.7-0.5-5c-1.2,2-2.9,4.2-5.1,6.5c-3.2,3.4-6.5,5.7-9.1,7.2c-2.2,1.6-5.6,3.6-9.9,5.1c-3.3,1.1-6.3,1.5-8.6,1.7
				c-2.5-0.8-9-3.1-13.1-9.7c-1.3-2-2-4-2.5-5.7c0.2,0.8,0.6,2.5,0.1,4.5c-0.5,2.3-1.8,3.7-2.4,4.3c-2.6-2.2-6.1-5.5-9-10.3
				c-1.8-2.8-3-5.5-3.8-7.8c-0.4,0.3-1.1,0.9-1.7,1.8c-0.9,1.8-0.5,3.5-0.4,4C469.5,636.4,468.6,635.4,467.7,634.3z"/>
			<path class="st17" d="M469.2,558.6c2.4-2.3,5.7-5,10-7.5c3.4-2,6.5-3.3,9.2-4.3c-3.2-7.1-11.4-9.5-16.6-6.6
				C466.4,543.2,464.2,552.1,469.2,558.6z"/>
			<path class="st18" d="M472.4,555.8c1.6-1.5,3.7-3.2,6.4-4.8c2.2-1.3,4.2-2.1,5.9-2.8c-2.1-4.6-7.3-6.1-10.7-4.3
				C470.5,546,469.1,551.7,472.4,555.8z"/>
			<path class="st17" d="M551,565.6c-2-2.7-4.7-6-8.5-9.1c-3-2.5-5.8-4.4-8.3-5.9c4.4-6.4,12.9-7.3,17.5-3.5
				C556.6,551,557.2,560.1,551,565.6z"/>
			<path class="st18" d="M548.4,562.3c-1.3-1.7-3.1-3.8-5.5-5.9c-1.9-1.6-3.8-2.9-5.4-3.8c2.9-4.1,8.3-4.7,11.3-2.3
				C552,552.9,552.4,558.8,548.4,562.3z"/>
			<path class="st17" d="M478.8,682.7c1.4-6.1,6.2-10.1,10.9-10c2.6,0.1,5.6,1.5,7.1,4.1c2.1,3.8,0.6,9.6-4.2,13.1"/>
			<path class="st17" d="M522.7,685.7c-0.3-6.3-4.3-11.1-8.9-11.8c-2.6-0.4-5.8,0.4-7.7,2.8c-2.8,3.4-2.4,9.3,1.8,13.6"/>
			<path class="st2" d="M500.8,698.2c-8.8,10.5-14.2,11.6-17.5,10.9c-4.4-1-5.4-6.3-12.5-10.1c-4-2.1-7.8-2.7-10.2-2.9"/>
			<circle class="st16" cx="458.3" cy="694.3" r="5.5"/>
			<path class="st2" d="M480.3,654.9c2.4,6.7,5.6,11.5,8,11.2c0.4,0,1.5-0.4,2.6-0.8c1.4-0.6,2.7-1.3,3.1-1.7
				c1.8-1.5,0.8-6.9-2.3-12.7"/>
			<path class="st2" d="M528.1,658.2c-3.6,6.2-7.6,10.3-9.9,9.6c-0.4-0.1-1.4-0.6-2.4-1.2c-1.3-0.8-2.4-1.8-2.8-2.2
				c-1.5-1.8,0.4-6.9,4.6-12.1"/>
		</g>
	</g>
	<g>
		<rect x="807.3" y="139.2" class="st9" width="33.9" height="79.9"/>
		<path class="st9" d="M841.2,139.2c4.3-28.9-13-56.9-40.3-65.8c-28.2-9.2-59.6,4.3-72.5,31.7c-2.6-1.1-21.8-9.2-41.4,1
			c-15.7,8.2-25.6,25-25.5,43.4c-3.1-0.2-13.2-0.6-22.6,6.2c-8.7,6.3-14.1,16.7-13.8,27.2c0.6,21.3,24.6,31.6,26.8,32.5
			c9.8,4,16.9,2.7,34.7,1.5c8.1-0.5,22.8-0.6,52.1-0.8c56-0.3,62.5,8.2,76.1,0.8C827.8,209.9,841.1,191.1,841.2,139.2z"/>
	</g>
	<g>
		<path class="st19" d="M834.5,221.9c10.2-52.6-22.9-103.7-72.5-115.7c-52.7-12.8-108.4,22.1-119.6,78c2.6-10.3,12.7-16.9,23-15.3
			c10,1.6,17.5,10.5,17.2,20.8c4.2-8.1,12.7-13,21.7-12.4c9.5,0.6,17.7,7.4,20.3,16.7c5.5-7.3,14.7-10.7,23.6-8.7
			c8.5,1.9,15.2,8.5,17.4,16.9c4.2-7.7,12.9-11.7,21.5-9.9c8.4,1.8,14.8,9,15.5,17.6c5.5-6.7,14.8-8.7,22.1-5.1
			C830.9,207.9,834.8,214.6,834.5,221.9z"/>
		<path class="st3" d="M716,320.7l-33.4-131.1c1.7-9.7,7.5-36.3,30.7-58.6c16.2-15.7,33.7-22.3,43.3-25.1
			c-6.7,7.4-15.4,18.9-22.2,34.7c-9.4,22.1-10.2,41.9-9.8,53.3L716,320.7"/>
		<path class="st3" d="M757.3,105.1c3.9,11.5,7.8,26.3,9.6,43.7c2.3,21.4,0.8,39.7-1.3,53.4L716,320.7"/>
		<path class="st3" d="M757.3,105.1c15.3,13.3,25.6,26.2,32.1,35.6c7.7,11,12.9,18.6,15.6,30.1c4,16.7,0.3,31.3-2.5,39.1L716,320.7"
			/>
		<polyline class="st3" points="642.4,184.1 716,320.7 834.5,221.9 		"/>
		<g>
			<path class="st20" d="M669.7,355.6c-2.7-2.1-8.6-7.2-11.8-16.1c-2.4-6.7-2.3-12.6-1.9-15.8c0.5-3.7,1.8-9.2,4.8-15.2
				c2.8-5.6,6.2-9.5,8.8-12.1c3.7-3.6,10.6-9.3,20.7-12.9c7.1-2.5,13.4-3.1,17.9-3.2c5,0.2,11.9,0.9,19.7,3.3
				c7.5,2.4,13.4,5.5,17.5,8.2c3.9,2.8,9.2,7.4,13.9,14.1c3.4,4.9,5.6,9.5,7,13.2c1.2,4.4,2.3,10.7,1.8,18.3
				c-0.2,3.5-0.8,10.4-4.5,18.2c-1.8,3.8-4.6,9.7-11.1,14.6c-6.3,4.8-12.8,6.1-16.2,6.6c-0.5,5.3-1.4,12.2-3.6,20
				c-2.3,8.5-4.2,15.4-9.7,22.6c-2.9,3.8-7.4,9.7-15.7,12.8c-6.8,2.5-12.9,1.7-17.5,1.2c-8.2-1-14-4-16-5c-4.1-2.2-7.2-4.8-9.2-6.7
				c-3-3.4-7.1-9.1-8.7-17.1c-1.3-6.3-0.4-11.3,0.3-16.2c1.2-7.5,3.5-12.9,6-18.4C664.5,364.4,667.1,359.7,669.7,355.6z"/>
			<path class="st12" d="M731.8,321.2c0.6,0,2,0,3.5,0.9c1.3,0.8,2,1.9,2.3,2.4c0.3,0.7,0.8,2,0.8,3.8c0,1.8-0.5,3.1-0.8,3.8
				c-0.4,0.5-1.1,1.4-2.2,2.1c-0.9,0.5-1.6,0.8-2.2,0.9c-0.7,0.1-1.8,0.1-3.1-0.3c-1.6-0.5-2.7-1.5-3.2-2c-0.4-0.4-0.9-1.1-1.3-2.1
				c-0.8-2.4,0.4-4.6,0.7-5.3c0.3-0.6,1-1.8,2.4-2.8C729.9,321.6,731.1,321.3,731.8,321.2z"/>
			<path class="st12" d="M697.2,310.3c0.6,0,2,0,3.5,0.9c1.3,0.8,2,1.9,2.3,2.4c0.3,0.7,0.8,2,0.8,3.8c0,1.8-0.5,3.1-0.8,3.8
				c-0.4,0.5-1.1,1.4-2.2,2.1c-0.9,0.5-1.6,0.8-2.2,0.9c-0.7,0.1-1.8,0.1-3.1-0.3c-1.6-0.5-2.7-1.5-3.2-2c-0.4-0.4-0.9-1.1-1.3-2.1
				c-0.8-2.4,0.4-4.6,0.7-5.3c0.3-0.6,1-1.8,2.4-2.8C695.3,310.7,696.6,310.4,697.2,310.3z"/>
			<path class="st20" d="M701.8,280.4c-2.1-7.4-9.4-11.5-15.3-9.9c-6.6,1.8-11.1,10.5-7.5,18.5c2.8-1.9,6.7-4.1,11.7-5.9
				C694.9,281.6,698.7,280.8,701.8,280.4z"/>
			<path class="st20" d="M751.8,297.2c6-4.9,14.3-4,18.2,0.7c4.4,5.2,3.1,14.9-4.5,19.4c-1.2-3.2-3.1-7.3-6.2-11.5
				C756.8,302.1,754.1,299.3,751.8,297.2z"/>
			<path class="st12" d="M706.1,331.7c0.5,0.1,11.4,3.6,11.4,3.6c-0.3,0.8-1.4,3.1-4,4.5c-1.3,0.7-2.6,0.9-3.4,1
				c-0.6-0.2-2.2-0.9-3.3-2.6C704.8,335.3,705.9,332.1,706.1,331.7z"/>
			<path class="st12" d="M690.5,304.4c5.4-0.5,11.9-0.7,19.3-0.2c4,0.3,7.8,0.8,11.2,1.4c3.5,1.5,7.4,3.4,11.6,5.7
				c5.1,2.9,9.4,6,12.9,8.8c-2.7-3.1-5.7-6.3-9.2-9.7c-4.3-4.1-8.4-7.6-12.3-10.7c-4.8,0.2-10,0.6-15.5,1.3
				C701.8,302,695.8,303.1,690.5,304.4z"/>
			<path class="st12" d="M700.9,296c4.1-0.4,8.9-0.5,14.4-0.1c3,0.2,5.8,0.6,8.4,1.1c2.6,1.1,5.6,2.5,8.7,4.3
				c3.8,2.2,7.1,4.5,9.7,6.5c-2-2.3-4.3-4.7-6.9-7.2c-3.2-3.1-6.3-5.7-9.2-7.9c-3.6,0.2-7.5,0.5-11.6,1
				C709.4,294.2,704.9,295.1,700.9,296z"/>
			<path class="st12" d="M661.2,307.7c2.9,3,6.2,6.2,9.9,9.3c4.8,4.1,9.5,7.6,13.8,10.6c-4.6-2.3-9.8-5.4-15.2-9.5
				c-3.6-2.8-6.8-5.6-9.4-8.2"/>
			<path class="st12" d="M767.8,341.9c-4.1,0.8-8.6,1.5-13.5,1.9c-6.3,0.6-12.1,0.8-17.4,0.8c5,0.7,11.1,1.2,17.9,1
				c4.6-0.2,8.7-0.7,12.4-1.3"/>
			<path class="st12" d="M657.7,317c2.7,2.7,5.7,5.6,9,8.4c4.3,3.7,8.6,6.9,12.5,9.6c-4.1-2.1-8.9-4.9-13.8-8.6
				c-3.3-2.5-6.1-5-8.5-7.4"/>
			<path class="st12" d="M764.4,352.8c-3.8,0.5-7.9,1-12.3,1.2c-5.7,0.3-11,0.3-15.8,0c4.5,0.9,10,1.6,16.2,1.6
				c4.1,0,7.9-0.3,11.3-0.7"/>
			
				<ellipse transform="matrix(0.3009 -0.9537 0.9537 0.3009 108.9054 936.8476)" class="st21" cx="693.4" cy="394.1" rx="24.8" ry="16.9"/>
			<path class="st20" d="M665.1,404c2.9-6,8.6-9.1,13.4-7.8c2.7,0.7,5.5,2.8,6.4,5.9c1.3,4.4-1.5,10-7.2,12.5"/>
			<path class="st20" d="M709.7,417c1.1-6.6-1.9-12.4-6.5-14.1c-2.6-1-6.1-0.9-8.6,1.1c-3.6,2.8-4.5,9-1.3,14.4"/>
			<path class="st20" d="M672.9,375.8c0.9,7.5,3.2,13.1,5.7,13.3c0.5,0,1.7,0,2.8-0.2c1.6-0.3,3.1-0.8,3.6-1.1
				c2.2-1.2,2.4-6.9,0.4-13.6"/>
			<path class="st20" d="M721.3,389.9c-5,5.6-10.1,8.8-12.3,7.6c-0.4-0.2-1.3-1-2.2-1.8c-1.2-1.1-2.1-2.4-2.4-2.9
				c-1.1-2.2,2-7,7.4-11.4"/>
			<line class="st2" x1="679.8" y1="385.4" x2="680.8" y2="388.9"/>
			<line class="st2" x1="682.6" y1="384.7" x2="683.6" y2="388.2"/>
			<line class="st2" x1="710.4" y1="394" x2="707.6" y2="396.3"/>
			<line class="st2" x1="708.5" y1="391.9" x2="705.7" y2="394.1"/>
			<line class="st2" x1="681.7" y1="397.5" x2="679" y2="399.3"/>
			<line class="st2" x1="683.4" y1="399.3" x2="680.5" y2="401.3"/>
			<line class="st2" x1="699.1" y1="402.4" x2="700.2" y2="405.4"/>
			<line class="st2" x1="696.6" y1="402.9" x2="697.9" y2="406.2"/>
			<path class="st22" d="M667.2,359.8c1.2,1.4,2.8,2.9,4.7,4.4c2.7,2.1,5.3,3.5,7.5,4.4c-2.2-0.5-5.2-1.4-8.4-3.2
				c-2-1.1-3.7-2.4-4.9-3.5"/>
			<path class="st22" d="M663.2,367.4c1.2,1.4,2.8,2.9,4.7,4.4c2.7,2.1,5.3,3.5,7.5,4.4c-2.2-0.5-5.2-1.4-8.4-3.2
				c-2-1.1-3.7-2.4-4.9-3.5"/>
			<path class="st22" d="M659.5,377.1c1.3,1.3,2.9,2.7,4.9,4.1c2.8,1.9,5.5,3.2,7.7,4c-2.2-0.3-5.3-1.1-8.5-2.7
				c-2.1-1-3.8-2.2-5.1-3.2"/>
			<path class="st22" d="M735.5,383.1c-1.8,0.4-3.9,0.7-6.4,0.7c-3.4,0.1-6.4-0.4-8.6-0.9c2.1,0.9,5,2,8.6,2.4
				c2.3,0.3,4.4,0.3,6.1,0.1"/>
			<path class="st22" d="M733.7,391.4c-1.8,0.4-3.9,0.7-6.4,0.7c-3.4,0.1-6.4-0.4-8.6-0.9c2.1,0.9,5,2,8.6,2.4
				c2.3,0.3,4.4,0.3,6.1,0.1"/>
			<path class="st22" d="M731.4,401.5c-1.8,0.3-4,0.4-6.4,0.3c-3.4-0.1-6.3-0.7-8.6-1.3c2,1.1,4.9,2.3,8.5,2.9
				c2.3,0.4,4.4,0.5,6.1,0.4"/>
			<path class="st23" d="M696.6,281.4c-1.3-4.5-5.7-6.9-9.2-6c-4,1.1-6.7,6.3-4.5,11.2c1.7-1.2,4.1-2.5,7-3.6
				C692.5,282.1,694.8,281.6,696.6,281.4z"/>
			<path class="st23" d="M755.2,300.9c3.6-3,8.6-2.4,11,0.4c2.6,3.1,1.9,9-2.7,11.7c-0.7-1.9-1.9-4.4-3.7-7
				C758.3,303.9,756.6,302.2,755.2,300.9z"/>
			<path class="st20" d="M676.9,429.8c-10.3-0.7-18.3-2.9-23.7-4.9c-14.7-5.3-25.8-13.9-30.2-10c-0.2,0.2-0.9,0.8-1.1,1.7
				c-0.9,5.3,15.7,12.5,21.9,14.7c8.1,3,23,6.6,44.2,2c-1.5-0.2-3.1-0.5-4.9-1C680.7,431.6,678.6,430.7,676.9,429.8z"/>
			<polyline class="st24" points="629.9,414.8 627.9,419.3 631,415.2 			"/>
			<polyline class="st24" points="629.6,424.9 632.2,420.4 628.6,424.4 			"/>
			<polyline class="st24" points="636.8,417.5 635.2,420.9 637.5,417.7 			"/>
			<polyline class="st24" points="636.5,428.1 638.9,424 635.5,427.7 			"/>
			<polyline class="st24" points="643.3,420.6 641.4,423.7 644,420.9 			"/>
			<polyline class="st24" points="641.3,430.7 643.9,426.2 640.3,430.2 			"/>
		</g>
	</g>
	<path class="st9" d="M281.8,445.8c7.8-16.5,3-38.9-12.2-51c-11-8.8-23.8-8.9-28.2-8.8c1.9-25.9-12.6-49.6-34.7-58.2
		c-26.5-10.4-59.2,2.7-72.5,31.7c-2.6-1.1-21.8-9.2-41.4,1c-15.7,8.2-25.6,25-25.5,43.4c-3.1-0.2-13.2-0.6-22.6,6.2
		c-8.7,6.3-14.1,16.7-13.8,27.2c0.6,21.3,24.6,31.6,26.8,32.5c9.8,4,16.9,2.7,34.7,1.5c8.1-0.5,22.8-0.6,52.1-0.8
		c36.5-0.2,54.7-0.3,76.1,0.8c10.8,0.6,19.8,1.3,31.2-2.6C258.7,466.4,274.6,461.1,281.8,445.8z"/>
	<g>
		<path class="st25" d="M211.1,165.4c-22.6-48.5-79.5-70.4-126.7-51C34.3,134.9,9.8,196,33.5,247.7c-3.9-9.8,0.3-21.1,9.6-25.9
			c9-4.6,20.3-1.8,26.1,6.7c-1.4-9,2.6-18,10.2-22.8c8.1-5.1,18.7-4.5,26.3,1.6c0.2-9.1,5.7-17.3,13.9-20.9c8-3.5,17.3-2.1,24.1,3.5
			c-1.1-8.7,3.6-17.1,11.6-20.6c7.9-3.5,17.2-1.4,22.9,5.1c0.6-8.7,6.8-15.7,14.9-17.1C199.9,156.2,207,159.3,211.1,165.4z"/>
		<path class="st3" d="M173.3,314.9L69.3,228.5c-4.4-8.8-15.2-33.8-9.6-65.4c3.9-22.2,14.2-37.9,20.2-45.8c-1,9.9-1.4,24.4,2.5,41.1
			c5.4,23.4,16.4,39.9,23.4,48.9L173.3,314.9"/>
		<path class="st3" d="M80,116.3c9.9,7,21.7,16.7,33.5,29.7c14.4,15.9,24,31.6,30.3,43.9l29.6,125"/>
		<path class="st3" d="M80,116.3c20.2,1.7,36.1,6.1,46.9,9.9c12.7,4.4,21.4,7.5,30.3,15.2c13.1,11.2,18.6,25.2,21,33.1l-4.9,140.4"
			/>
		<polyline class="st3" points="33.5,247.7 173.3,314.9 211.1,165.4 		"/>
		<g>
			<path class="st26" d="M130.2,355.3c-4.1,1.7-10.3,3.8-18.2,5c-10.4,1.5-16.7,2.4-21.8-0.7c-10.1-6.2-8.8-24.2-7.8-38.2
				c0.9-12.1,1.7-23.8,10.1-29c5.5-3.4,12-2.8,16.4-2.4c9.3,0.9,16,5,19.2,7.3L130.2,355.3z"/>
			<path class="st26" d="M216.4,322.9c4.2-1.4,10.3-3.9,17-8.2c8.8-5.7,14.1-9.1,15.9-14.9c3.5-11.3-9.3-24-19.3-33.9
				c-8.6-8.6-16.9-16.8-26.7-15.2c-6.4,1-10.9,5.8-13.9,9c-6.4,6.8-8.8,14.2-9.7,18.1L216.4,322.9z"/>
			<path class="st26" d="M150.3,362.2c-3,0-9.8-0.4-16.9-4.7c-5.3-3.3-8.4-7.5-9.9-9.9c-1.7-2.9-3.8-7.4-4.9-13.2
				c-1-5.4-0.9-10-0.5-13.2c0.6-4.5,2.3-12.2,7.4-20.2c3.6-5.6,7.6-9.4,10.6-11.9c3.6-2.6,8.7-5.8,15.5-8.4
				c6.5-2.4,12.3-3.4,16.6-3.8c4.2-0.1,10.3,0.1,17.3,2.2c5,1.5,9.1,3.5,12.1,5.4c3.2,2.4,7.4,6.1,11.2,11.7
				c1.8,2.6,5.1,7.6,6.8,15.1c0.8,3.7,2.1,9.3,0.3,16.2c-1.8,6.8-5.6,11.2-7.7,13.3c2.6,4,5.6,9.3,8.4,15.8c3,7.2,5.4,13,5.5,21
				c0.1,4.2,0.1,10.8-4,17.4c-3.4,5.4-8,8.2-11.5,10.3c-6.3,3.8-11.9,4.9-13.8,5.2c-4.1,0.7-7.6,0.6-10.1,0.4
				c-3.9-0.7-9.9-2.5-15.3-7.1c-4.3-3.7-6.5-7.6-8.5-11.4c-3.2-5.8-4.5-10.8-5.9-16C151.5,371.1,150.7,366.4,150.3,362.2z"/>
			<path class="st12" d="M175.4,303.8c0.4-0.3,1.4-1.1,2.9-1.3c1.3-0.2,2.4,0.2,2.9,0.4c0.6,0.3,1.7,1,2.6,2.2
				c0.9,1.2,1.3,2.4,1.5,3.1c0,0.6,0,1.6-0.4,2.7c-0.3,0.8-0.7,1.4-1,1.8c-0.5,0.4-1.2,1.1-2.3,1.5c-1.4,0.5-2.7,0.5-3.3,0.4
				c-0.5-0.1-1.2-0.2-2-0.8c-1.8-1.2-2.3-3.4-2.4-4.1c-0.1-0.6-0.3-1.8,0.1-3.3C174.3,305.2,175,304.3,175.4,303.8z"/>
			<path class="st12" d="M145.5,315c0.4-0.3,1.4-1.1,2.9-1.3c1.3-0.2,2.4,0.2,2.9,0.4c0.6,0.3,1.7,1,2.6,2.2
				c0.9,1.2,1.3,2.4,1.5,3.1c0,0.6,0,1.6-0.4,2.7c-0.3,0.8-0.7,1.4-1,1.8c-0.5,0.4-1.2,1.1-2.3,1.5c-1.4,0.5-2.7,0.5-3.3,0.4
				c-0.5-0.1-1.2-0.2-2-0.8c-1.8-1.2-2.3-3.4-2.4-4.1c-0.1-0.6-0.3-1.8,0.1-3.3C144.4,316.4,145.1,315.5,145.5,315z"/>
			<path class="st2" d="M163.9,322.5c1.4-0.5,3.3-1,5.5-0.5c4.3,0.9,6.7,5.2,9.9,11.3c1.9,3.6,4.4,9.1,5.7,12.3
				c0.8,2.1,1.2,3.5,2.5,5.3c0.7,1,1.1,1.3,1.3,2.1c0.5,2.4-2,4.7-2.3,5c-0.6,0.6-1.8,1.7-3,1.6c-1.8-0.1-2.8-2.7-6.1-10.7
				c-1.3-3.1-2.9-6.2-4-9.3c-1.3-3.5-1.9-6-4.2-7.2c-1.4-0.7-2.9-0.7-3.9-0.6"/>
			<path class="st2" d="M182.2,359.1c-0.8-2.1-0.1-4.4,1.5-5.7c2.1-1.7,4.7-0.8,4.9-0.8"/>
			<path class="st2" d="M160,360c6.2,1.3,16.7,3.9,16.9,7.7c0,0.3-0.2,1.2-0.7,3.1c-1,3.9-1.5,5.9-1.8,6.3
				c-2.5,3.4-14.2-1.1-16.1-1.9"/>
			<path class="st2" d="M171.3,397.8c1.6-6.7,4.6-11.6,7.7-11.8c0.9,0,1.8,0.3,3.1,0.7c2.5,0.9,4.9,2.3,5.9,3.4
				c2.7,2.8,2.1,9.6-1.9,16.1"/>
			
				<ellipse transform="matrix(0.8103 -0.5861 0.5861 0.8103 -174.2955 175.5173)" class="st12" cx="183.9" cy="357" rx="0.8" ry="1.2"/>
			
				<ellipse transform="matrix(0.8406 -0.5416 0.5416 0.8406 -162.3764 157.4325)" class="st12" cx="186.3" cy="354.6" rx="0.8" ry="1.2"/>
			<g>
				<g>
					<path class="st27" d="M177.3,386.5c-0.4,1.5,0.1,3.4,2,3.4c1.6,0,3-1.4,3.2-3c0.1-0.6-0.9-0.6-1,0c-0.1,0.9-0.9,1.7-1.8,1.9
						c-1.4,0.4-1.7-1-1.4-2.1C178.4,386.1,177.5,385.8,177.3,386.5L177.3,386.5z"/>
				</g>
			</g>
			<g>
				<g>
					<path class="st27" d="M181.6,386.8c-0.4,1.4-0.8,3.3,0.8,4c1.6,0.6,3.1-0.8,3.3-2.3c0.1-0.6-0.9-0.9-1-0.3
						c-0.1,0.9-1,2.1-2,1.6c-1-0.5-0.4-2-0.2-2.8C182.7,386.5,181.8,386.2,181.6,386.8L181.6,386.8z"/>
				</g>
			</g>
			<g>
				<g>
					<path class="st27" d="M185.3,388.3c-1.2,1.1-1.2,3.2,0.1,4.2c0.6,0.5,1.4,0.7,2.1,0.4c0.7-0.2,1.1-0.9,1.5-1.5
						c0.4-0.5-0.5-1-0.9-0.5c-0.6,0.8-1.3,1.5-2.3,0.7c-0.7-0.7-0.6-2,0.1-2.7C186.5,388.6,185.8,387.9,185.3,388.3L185.3,388.3z"/>
				</g>
			</g>
			<path class="st2" d="M217.6,380.5c-5.6-4-11.1-5.8-13.6-3.8c-0.7,0.5-1.2,1.4-1.8,2.6c-1.3,2.3-2.2,5-2.3,6.5
				c-0.2,3.9,4.7,8.6,12,10.9"/>
			<g>
				<g>
					<path class="st27" d="M205.1,376.7c0.9,0.6,1.5,1.8,0.3,2.5c-0.8,0.5-2,0.4-2.7-0.2c-0.5-0.4-1.2,0.3-0.7,0.7
						c1.2,1.1,3.2,1.1,4.4,0c1.4-1.2,0.5-3-0.8-3.8C205.1,375.5,204.6,376.3,205.1,376.7L205.1,376.7z"/>
				</g>
			</g>
			<g>
				<g>
					<path class="st27" d="M202.1,379.8c0.7,0.5,2.2,1.3,1.6,2.3c-0.5,0.9-1.8,0.7-2.5,0.1c-0.5-0.4-1.2,0.3-0.7,0.7
						c1.1,0.9,3,1.2,4-0.1c1.2-1.7-0.6-3-1.9-3.8C202.1,378.5,201.6,379.4,202.1,379.8L202.1,379.8z"/>
				</g>
			</g>
			<g>
				<g>
					<path class="st27" d="M200.8,383.5c1.1,0.1,2,1.1,1.8,2.2c-0.3,1.1-1.3,0.9-2.1,0.7c-0.6-0.1-0.9,0.8-0.3,1
						c0.7,0.2,1.4,0.3,2.1,0.1c0.8-0.3,1.2-1,1.3-1.8c0.3-1.7-1.1-3.1-2.8-3.2C200.2,382.5,200.2,383.5,200.8,383.5L200.8,383.5z"/>
				</g>
			</g>
			<g>
				<g>
					<path class="st27" d="M176.6,366.1c-0.7-0.1-1.5-0.1-2.1,0.3c-0.6,0.4-0.8,1-0.9,1.6c-0.3,1.5,0.9,2.7,2.3,3
						c0.6,0.2,0.9-0.8,0.3-1c-0.8-0.2-1.7-0.9-1.6-1.7c0-0.3,0.1-0.8,0.3-1.1c0.3-0.3,1-0.3,1.4-0.3
						C176.9,367.2,177.2,366.2,176.6,366.1L176.6,366.1z"/>
				</g>
			</g>
			<g>
				<g>
					<path class="st27" d="M176,370.3c-0.7-0.1-1.6-0.4-2.3,0c-0.6,0.3-1,1-1.1,1.7c-0.2,1.3,1,2.9,2.4,2.9c0.6,0,0.6-1,0-1
						c-0.8,0-1.6-1.1-1.4-1.8c0.3-1.1,1.2-0.9,2.2-0.8C176.4,371.3,176.7,370.3,176,370.3L176,370.3z"/>
				</g>
			</g>
			<g>
				<g>
					<path class="st27" d="M175,373.8c-0.9,0-1.7-0.3-2.6,0c-0.7,0.3-1,0.8-1.3,1.5c-0.5,1.5,0.5,2.9,2.1,3c0.6,0,0.6-1,0-1
						c-1.1,0-1.6-1.3-0.9-2.2c0.6-0.8,1.9-0.2,2.7-0.2C175.6,374.9,175.6,373.9,175,373.8L175,373.8z"/>
				</g>
			</g>
			<path class="st2" d="M200.6,344.7c-3.8,5-10,14-7.7,16.9c0.2,0.2,1,0.8,2.6,1.8c3.3,2.3,5,3.4,5.5,3.5c4.1,0.9,9.9-10.1,10.9-12"
				/>
			<g>
				<g>
					<path class="st27" d="M192.9,360.9c0.2-0.3,0.5-0.6,0.9-0.7c0.5-0.2,1,0.1,1.3,0.5c0.6,0.6,0.4,1.8-0.1,2.4
						c-0.4,0.5,0.5,1,0.9,0.5c0.8-1.1,0.9-2.8-0.2-3.8c-0.5-0.4-1.1-0.8-1.7-0.7c-0.7,0.1-1.3,0.6-1.8,1.1
						C191.8,360.7,192.5,361.4,192.9,360.9L192.9,360.9z"/>
				</g>
			</g>
			<g>
				<g>
					<path class="st27" d="M196,363.7c0.6-0.7,1.1-1.5,2.1-1c0.8,0.4,1,1.8,0.3,2.4c-0.5,0.4,0.2,1.1,0.7,0.7c1.1-0.9,0.9-3-0.2-3.8
						c-0.5-0.4-1.2-0.6-1.9-0.5c-0.8,0.2-1.2,0.9-1.7,1.4C194.9,363.5,195.6,364.2,196,363.7L196,363.7z"/>
				</g>
			</g>
			<g>
				<g>
					<path class="st27" d="M199.1,365.8c0.5-0.5,1-1.5,1.8-1.6c0.4-0.1,0.9,0.2,1.1,0.5c0.6,0.5,0.5,1.3-0.1,1.8
						c-0.5,0.4,0.2,1.2,0.7,0.7c1.3-1.2,0.8-3-0.6-3.7c-0.6-0.3-1.1-0.4-1.7-0.1c-0.9,0.4-1.3,1.1-1.9,1.7
						C197.9,365.5,198.6,366.2,199.1,365.8L199.1,365.8z"/>
				</g>
			</g>
			<path class="st2" d="M196.3,418.4c0.7-0.4,3.4-2,4.5-5.4c0.7-2.2,0.3-4.1,0.1-5"/>
			<circle class="st12" cx="195.8" cy="418.8" r="2"/>
		</g>
	</g>
	<g>
		<path class="st28" d="M417.3,419.6c-16.5-51-70.2-79.7-119.4-66.2c-52.3,14.3-84.2,71.8-67,126.1c-2.7-10.2,2.9-20.9,12.7-24.5
			c9.5-3.5,20.4,0.7,25.1,9.9c-0.3-9.1,4.8-17.5,13-21.3c8.6-4,19.1-2.1,25.9,4.8c1.3-9,7.7-16.5,16.4-19c8.3-2.5,17.4,0,23.4,6.4
			c-0.1-8.7,5.7-16.5,14-19c8.3-2.5,17.3,0.7,22.1,7.9c1.6-8.5,8.7-14.8,16.9-15.2C407.3,409.1,414,413.1,417.3,419.6z"/>
		<path class="st3" d="M361.3,563.4l-92.6-98.6c-3.2-9.3-10.9-35.4-1.5-66.1c6.6-21.6,18.7-35.8,25.7-42.9c-2.3,9.7-4.4,24-2.6,41.1
			c2.5,23.8,11.3,41.6,17.2,51.4L361.3,563.4"/>
		<path class="st3" d="M293.2,354.8c9,8.2,19.5,19.2,29.6,33.6c12.3,17.6,19.9,34.3,24.7,47.3l14,127.7"/>
		<path class="st3" d="M293.2,354.8c19.8,4.2,35,10.5,45.3,15.6c12.1,5.9,20.3,10.1,28.2,18.8c11.6,12.7,15.4,27.3,16.8,35.5
			l-22.1,138.8"/>
		<polyline class="st3" points="230.9,479.4 361.3,563.4 417.3,419.6 		"/>
		<g>
			<path class="st29" d="M332.5,616c-3.3-0.6-10.9-2.4-17.9-8.8c-5.2-4.8-7.8-10.1-9-13.1c-1.3-3.6-2.7-9-2.8-15.7
				c-0.1-6.2,1.1-11.3,2.2-14.8c1.6-4.9,5.1-13.1,12.4-21c5.1-5.5,10.4-9,14.3-11.1c4.5-2.2,11-4.7,19-6.1
				c7.7-1.4,14.4-1.3,19.3-0.8c4.8,0.7,11.5,2.3,18.8,6.1c5.3,2.7,9.4,5.8,12.4,8.5c3.1,3.3,7,8.4,10,15.4c1.4,3.3,4.1,9.6,4.4,18.2
				c0.2,4.2,0.4,10.8-3.1,18.1c-3.4,7.2-8.5,11.4-11.3,13.3c2.1,5,4.4,11.5,6.1,19.4c1.9,8.7,3.4,15.6,1.8,24.6
				c-0.8,4.7-2.1,12.1-8,18.6c-4.9,5.4-10.6,7.5-15,9.1c-7.8,2.9-14.3,3-16.5,2.9c-4.7-0.1-8.6-0.9-11.3-1.7
				c-4.2-1.6-10.5-4.8-15.6-11.1c-4-5-5.6-9.8-7.2-14.5c-2.4-7.2-2.8-13-3.2-19.1C332,626.3,332.1,620.8,332.5,616z"/>
			<g>
				<path class="st12" d="M373.8,560.4c0.5-0.3,1.8-0.9,3.5-0.8c1.5,0.1,2.6,0.7,3.1,1.1c0.6,0.5,1.7,1.4,2.5,3c0.8,1.6,1,3,1,3.8
					c-0.1,0.7-0.3,1.7-1,2.9c-0.5,0.9-1.1,1.5-1.5,1.8c-0.6,0.4-1.6,0.9-2.9,1.2c-1.7,0.3-3.1,0-3.8-0.3c-0.5-0.2-1.3-0.5-2.1-1.3
					c-1.8-1.8-1.8-4.3-1.8-5c0-0.7,0.1-2.1,0.8-3.6C372.3,561.7,373.2,560.8,373.8,560.4z"/>
				<path class="st12" d="M338.1,566.8c0.5-0.3,1.8-0.9,3.5-0.8c1.5,0.1,2.6,0.7,3.1,1.1c0.6,0.5,1.7,1.4,2.5,3c0.8,1.6,1,3,1,3.8
					c-0.1,0.7-0.3,1.7-1,2.9c-0.5,0.9-1.1,1.5-1.5,1.8c-0.6,0.4-1.6,0.9-2.9,1.2c-1.7,0.3-3.1,0-3.8-0.3c-0.5-0.2-1.3-0.5-2.1-1.3
					c-1.8-1.8-1.8-4.3-1.8-5c0-0.7,0.1-2.1,0.8-3.6C336.6,568,337.5,567.2,338.1,566.8z"/>
			</g>
			<path class="st2" d="M409.6,583.3c1.7-0.1,4.6,0,7.8,1.1c2.5,0.9,4.4,2.1,5.6,3"/>
			<path class="st2" d="M405.8,593c2.1-0.1,5.2,0,8.8,1c2.8,0.8,5,1.9,6.6,2.9"/>
			<path class="st2" d="M317.7,600c-1.7,0.5-4.3,1.6-6.9,3.7c-2,1.7-3.4,3.5-4.2,4.8"/>
			<path class="st2" d="M324.7,607.9c-2,0.6-4.9,1.8-7.9,3.9c-2.3,1.7-4,3.5-5.2,5"/>
			<path class="st12" d="M355.3,581.3l11.3-2c0,0.8-0.2,2.5-1.3,4.3c-1,1.7-2.3,2.6-3,3.1c-0.8-0.1-2.6-0.4-4.3-1.8
				C356.3,583.5,355.6,582,355.3,581.3z"/>
			<path class="st29" d="M326.2,534.5c-5.3-5.6-13.7-5.8-18.2-1.7c-5,4.6-5,14.4,1.9,19.8c1.6-3,4.1-6.8,7.6-10.6
				C320.6,538.7,323.6,536.3,326.2,534.5z"/>
			<path class="st29" d="M378.3,526.3c3-7.1,10.9-10.1,16.5-7.8c6.3,2.6,9.6,11.8,5,19.3c-2.6-2.3-6.1-5-10.8-7.4
				C385,528.4,381.3,527.1,378.3,526.3z"/>
			<path class="st29" d="M374.7,678.8c-1.8,2.4-4.7,5.7-8.7,8.7c-7.9,6-15.2,7.3-15.1,7.8c0.2,0.6,11.5-0.3,22.4-6.9
				c7.1-4.3,11.7-9.5,14.4-13.3c-1.8,0.8-4,1.7-6.6,2.4C378.8,678.3,376.6,678.6,374.7,678.8z"/>
			
				<ellipse transform="matrix(0.9847 -0.1743 0.1743 0.9847 -105.7 74.6878)" class="st30" cx="372.3" cy="639.1" rx="18.9" ry="25.8"/>
			<g>
				<path class="st29" d="M348.9,630.6c3.2-0.8,5.7-0.9,7.4-0.7c2.3,0.2,4,0.6,5.2-0.3c1.1-0.9,1.2-2.5,1.1-3.7
					c0-0.7-0.3-2.9-1.9-4.3c-0.9-0.7-1.9-1-3.1-1.2c-3.7-0.5-7.3,0.3-9.7,1.1"/>
				<path class="st29" d="M390.4,623.3c-3.3,0.3-5.6,1.2-7.2,1.9c-2.1,1-3.5,2-5,1.5c-1.3-0.5-1.9-1.9-2.3-3.1
					c-0.2-0.7-0.8-2.8,0.3-4.7c0.6-1,1.4-1.6,2.5-2.2c3.3-1.7,6.9-2.2,9.5-2.3"/>
				<path class="st29" d="M354.7,658.1c0.4-2.5,1.7-7.3,5.8-10.1c0.9-0.6,3.2-2.2,4.8-1.4c1.6,0.9,1.5,3.7,1.4,5.3
					c-0.1,2-0.6,6.1-4.1,10.8"/>
				<path class="st29" d="M393.8,651.1c-1.3-2.2-4.1-6.3-8.9-7.5c-1-0.3-3.8-1-5,0.4c-1.2,1.4-0.1,4,0.5,5.5
					c0.8,1.9,2.7,5.5,7.6,8.7"/>
			</g>
		</g>
	</g>
	<g>
		<path class="st31" d="M635.9,119.7c8.8-52.8-25.8-103-75.7-113.7c-53-11.3-107.7,25.2-117.4,81.3c2.3-10.3,12.2-17.2,22.5-15.9
			c10,1.3,17.7,10,17.8,20.3c3.9-8.2,12.3-13.4,21.3-13c9.5,0.4,17.9,6.9,20.8,16.1c5.3-7.4,14.4-11.1,23.3-9.4
			c8.5,1.7,15.5,8,17.9,16.5c4-7.8,12.6-12.1,21.2-10.5c8.5,1.6,15,8.6,16,17.2c5.4-6.8,14.5-9.1,21.9-5.7
			C631.9,105.8,635.9,112.4,635.9,119.7z"/>
		<path class="st3" d="M520.2,221.7L483.2,91.6c1.4-9.8,6.5-36.4,29-59.4C528,16.1,545.2,9,554.7,5.9c-6.5,7.6-14.9,19.3-21.2,35.3
			c-8.7,22.3-9,42.2-8.3,53.6L520.2,221.7"/>
		<path class="st3" d="M555.4,5.1c4.2,11.4,8.5,26,10.8,43.4c2.9,21.3,1.9,39.7,0.2,53.4l-46.2,119.8"/>
		<path class="st3" d="M555.4,5.1c15.7,12.8,26.3,25.4,33.1,34.7c8,10.8,13.4,18.3,16.5,29.6c4.5,16.6,1.1,31.3-1.4,39.2
			l-83.3,113.1"/>
		<polyline class="st3" points="442.8,87.3 520.2,221.7 635.9,119.7 		"/>
		<g>
			<path class="st32" d="M474.9,259c-2.9-1.8-9.2-6.3-13.3-14.8c-3.1-6.4-3.5-12.3-3.5-15.5c0.2-3.8,0.8-9.4,3.3-15.6
				c2.3-5.8,5.2-10.1,7.5-12.9c3.3-4,9.6-10.3,19.3-14.9c6.8-3.2,13-4.5,17.4-5c5-0.3,11.9-0.3,19.9,1.4c7.7,1.6,13.8,4.2,18.2,6.4
				c4.2,2.4,9.8,6.4,15.2,12.6c3.9,4.5,6.5,8.9,8.3,12.5c1.6,4.2,3.4,10.4,3.6,18c0.1,3.5,0.2,10.4-2.7,18.6
				c-1.4,4-3.6,10.2-9.6,15.7c-5.8,5.4-12.1,7.4-15.4,8.1c0.1,5.4-0.2,12.3-1.6,20.3c-1.5,8.7-2.7,15.8-7.4,23.5
				c-2.5,4-6.4,10.4-14.3,14.3c-6.6,3.2-12.6,3-17.3,2.9c-8.3-0.2-14.3-2.6-16.4-3.4c-4.3-1.8-7.6-4-9.9-5.8c-3.3-3-8-8.3-10.4-16.1
				c-1.9-6.1-1.6-11.2-1.3-16.1c0.5-7.6,2.2-13.1,4.1-18.9C470.7,268.3,472.8,263.2,474.9,259z"/>
			<g>
				<path class="st12" d="M533.6,221.6c0.6-0.1,2-0.2,3.6,0.5c1.4,0.7,2.1,1.7,2.5,2.2c0.4,0.6,1,1.9,1.2,3.7
					c0.2,1.7-0.2,3.1-0.5,3.9c-0.3,0.6-1,1.5-2,2.3c-0.8,0.6-1.6,0.9-2.1,1.1c-0.7,0.1-1.8,0.3-3.1,0c-1.7-0.3-2.8-1.2-3.4-1.7
					c-0.4-0.3-1-1-1.5-2c-1-2.3-0.1-4.7,0.2-5.4c0.3-0.7,0.8-1.9,2.1-3.1C531.8,222.2,533,221.8,533.6,221.6z"/>
				<path class="st12" d="M498.1,214.2c0.6-0.1,2-0.2,3.6,0.5c1.4,0.7,2.1,1.7,2.5,2.2c0.4,0.6,1,1.9,1.2,3.7
					c0.2,1.7-0.2,3.1-0.5,3.9c-0.3,0.6-1,1.5-2,2.3c-0.8,0.6-1.6,0.9-2.1,1.1c-0.7,0.1-1.8,0.3-3.1,0c-1.7-0.3-2.8-1.2-3.4-1.7
					c-0.4-0.3-1-1-1.5-2c-1-2.3-0.1-4.7,0.2-5.4c0.3-0.7,0.8-1.9,2.1-3.1C496.3,214.8,497.5,214.4,498.1,214.2z"/>
			</g>
			<path class="st32" d="M499.4,181c-2.8-7.2-10.5-10.5-16.2-8.3c-6.4,2.4-10,11.5-5.6,19.1c2.6-2.2,6.3-4.8,11-7
				C492.6,182.8,496.3,181.6,499.4,181z"/>
			<path class="st32" d="M550.8,192.7c5.5-5.5,13.8-5.4,18.2-1.1c4.9,4.7,4.6,14.6-2.5,19.8c-1.5-3.1-3.8-6.9-7.3-10.9
				C556.2,197.1,553.3,194.5,550.8,192.7z"/>
			
				<ellipse transform="matrix(0.2043 -0.9789 0.9789 0.2043 171.5656 693.4366)" class="st12" cx="512.3" cy="241.2" rx="3.7" ry="8.4"/>
			
				<ellipse transform="matrix(0.2043 -0.9789 0.9789 0.2043 111.178 727.4529)" class="st33" cx="503.1" cy="295.3" rx="26.8" ry="16.4"/>
			<g>
				<g>
					<path class="st32" d="M480.7,263.8c0,12.9,4,22.9,10.5,25c0.8,0.3,2.9,0.9,4.6-0.1c6.2-3.6-0.7-25-1.4-27.2"/>
					<path class="st32" d="M492.5,284.3c-0.1,0.6-0.2,1.5,0.1,2.7c0.3,1,0.7,1.8,1,2.2"/>
					<path class="st32" d="M495.6,283.9c0,0.5-0.1,1.3,0.2,2.2c0.2,0.9,0.5,1.5,0.8,1.9"/>
					<path class="st32" d="M536.1,275.3c-5.1,11.8-12.8,19.4-19.6,18.7c-0.9-0.1-3-0.3-4.2-1.9c-4.1-5.7,10.8-22.1,12.8-24.2"/>
					<path class="st32" d="M517.1,289.5c-0.1,0.6-0.5,1.5-1.2,2.4c-0.6,0.8-1.3,1.3-1.8,1.6"/>
					<path class="st32" d="M514.3,287.8c-0.2,0.5-0.5,1.2-1,2c-0.5,0.7-1.1,1.2-1.5,1.5"/>
				</g>
				<g>
					<path class="st32" d="M473.8,316.1c2-5.5,6.9-8.6,11.3-7.8c2.5,0.5,5,2.2,6.1,4.8c1.6,3.9-0.3,9.2-5.1,12.1"/>
					<line class="st32" x1="486.2" y1="310.6" x2="487.5" y2="309.2"/>
					<line class="st32" x1="488.3" y1="312.6" x2="489.9" y2="311"/>
					<path class="st32" d="M520.5,325.4c0.4-5.8-2.9-10.6-7.2-11.7c-2.5-0.6-5.5,0-7.5,2c-3.1,3-3.4,8.6-0.2,13.2"/>
					<line class="st32" x1="511.4" y1="315.4" x2="510.7" y2="313.5"/>
					<line class="st32" x1="508.7" y1="316.3" x2="507.9" y2="314.3"/>
				</g>
			</g>
		</g>
	</g>
</g>
<g id="Layer_3">
	<path class="st3" d="M43.8,113.8"/>
</g>
</svg>
